# xmcd
#
# Track frame offsets:
#	150
#	9655
#	21890
#	36057
#	49592
#	64172
#	75915
#	90842
#	104095
#	118275
#	129447
#
# Disc length: 1928 seconds
#
# Revision: 2
# Processed by: cddbd v1.5.2PL0 Copyright (c) Steve Scherf et al.
# Submitted via: audiograbber 1.83.01
#
DISCID=8307860b
DTITLE=Hoyt Axton - Snowblind Friend
DYEAR=1977
DGENRE=Country
TTITLE0=You're The Hangnail In My Life
TTITLE1=Little White Moon
TTITLE2=Water For My Horses
TTITLE3=Funeral Of The King
TTITLE4=I Light This Candle
TTITLE5=Never Been To Spain
TTITLE6=You Taught Me How To Cry
TTITLE7=Snowblind Friend
TTITLE8=Poncho And Lefty
TTITLE9=Seven Come
TTITLE10=I Don't Know Why I Love You
EXTD=
EXTT0=
EXTT1=
EXTT2=
EXTT3=
EXTT4=
EXTT5=
EXTT6=
EXTT7=
EXTT8=
EXTT9=
EXTT10=
PLAYORDER=
